<svg xmlns="http://www.w3.org/2000/svg" viewBox="0 0 87.72 141.75"><defs><style>.cls-1,.cls-2{fill:#c35b18;}.cls-2{opacity:0.5;}</style></defs><g id="Camada_2" data-name="Camada 2"><g id="Camada_1-2" data-name="Camada 1"><path class="cls-1" d="M80.77,61.8H7C3.13,61.8,0,64.66,0,68.13v67.28c0,3.49,3.13,6.34,7,6.34H80.77c3.82,0,7-2.85,7-6.34V68.13C87.72,64.66,84.59,61.8,80.77,61.8ZM48.85,101.58v14.63a5,5,0,1,1-10,0V101.58a11.39,11.39,0,1,1,10,0Z"/><path class="cls-2" d="M21.7,56.14V35.56a21.75,21.75,0,1,1,43.49,0V56.14H79V35.56a35.56,35.56,0,1,0-71.11,0V56.14Z"/></g></g></svg>